<mxfile host="app.diagrams.net" agent="Mozilla/5.0 (Windows NT 10.0; Win64; x64) AppleWebKit/537.36 (KHTML, like Gecko) Chrome/132.0.0.0 Safari/537.36" version="26.0.10" pages="5">
  <diagram name="caseUse" id="5YOeRWbkEh5e2hR78IlF">
    <mxGraphModel dx="1050" dy="580" grid="1" gridSize="10" guides="1" tooltips="1" connect="1" arrows="1" fold="1" page="1" pageScale="1" pageWidth="827" pageHeight="1169" math="0" shadow="0">
      <root>
        <mxCell id="0" />
        <mxCell id="1" parent="0" />
        <mxCell id="OvkjuIX2CIs81xGkpPV2-1" value="Pazienti" style="shape=umlActor;verticalLabelPosition=bottom;verticalAlign=top;html=1;outlineConnect=0;" vertex="1" parent="1">
          <mxGeometry x="490" y="20" width="30" height="60" as="geometry" />
        </mxCell>
        <mxCell id="OvkjuIX2CIs81xGkpPV2-2" value="Medici" style="shape=umlActor;verticalLabelPosition=bottom;verticalAlign=top;html=1;outlineConnect=0;" vertex="1" parent="1">
          <mxGeometry x="750" y="20" width="30" height="60" as="geometry" />
        </mxCell>
        <mxCell id="OvkjuIX2CIs81xGkpPV2-3" value="Identity provider" style="shape=umlActor;verticalLabelPosition=bottom;verticalAlign=top;html=1;outlineConnect=0;" vertex="1" parent="1">
          <mxGeometry x="621" y="20" width="30" height="60" as="geometry" />
        </mxCell>
        <mxCell id="OvkjuIX2CIs81xGkpPV2-4" value="&lt;font style=&quot;font-size: 30px;&quot;&gt;Registrazione&lt;/font&gt;" style="ellipse;whiteSpace=wrap;html=1;" vertex="1" parent="1">
          <mxGeometry x="20" y="20" width="236" height="80" as="geometry" />
        </mxCell>
        <mxCell id="OvkjuIX2CIs81xGkpPV2-5" value="&lt;font style=&quot;font-size: 30px;&quot;&gt;Log-in&lt;/font&gt;" style="ellipse;whiteSpace=wrap;html=1;" vertex="1" parent="1">
          <mxGeometry x="20" y="120" width="236" height="80" as="geometry" />
        </mxCell>
        <mxCell id="OvkjuIX2CIs81xGkpPV2-12" value="Sistema" style="shape=umlActor;verticalLabelPosition=bottom;verticalAlign=top;html=1;outlineConnect=0;" vertex="1" parent="1">
          <mxGeometry x="360" y="20" width="30" height="60" as="geometry" />
        </mxCell>
      </root>
    </mxGraphModel>
  </diagram>
  <diagram id="WIKCi4djFAxLHXfYwHIS" name="activity">
    <mxGraphModel dx="1050" dy="580" grid="1" gridSize="10" guides="1" tooltips="1" connect="1" arrows="1" fold="1" page="1" pageScale="1" pageWidth="827" pageHeight="1169" math="0" shadow="0">
      <root>
        <mxCell id="0" />
        <mxCell id="1" parent="0" />
      </root>
    </mxGraphModel>
  </diagram>
  <diagram id="haw745c3QgYH6Dh_yxL6" name="swimLane">
    <mxGraphModel dx="1050" dy="580" grid="1" gridSize="10" guides="1" tooltips="1" connect="1" arrows="1" fold="1" page="1" pageScale="1" pageWidth="827" pageHeight="1169" math="0" shadow="0">
      <root>
        <mxCell id="0" />
        <mxCell id="1" parent="0" />
      </root>
    </mxGraphModel>
  </diagram>
  <diagram id="xCThVpPJNMf9oLktIhax" name="sequence">
    <mxGraphModel dx="1050" dy="580" grid="1" gridSize="10" guides="1" tooltips="1" connect="1" arrows="1" fold="1" page="1" pageScale="1" pageWidth="827" pageHeight="1169" math="0" shadow="0">
      <root>
        <mxCell id="0" />
        <mxCell id="1" parent="0" />
      </root>
    </mxGraphModel>
  </diagram>
  <diagram id="cPCokOUU2SmkPa_6YjNQ" name="deployment">
    <mxGraphModel dx="1050" dy="580" grid="1" gridSize="10" guides="1" tooltips="1" connect="1" arrows="1" fold="1" page="1" pageScale="1" pageWidth="827" pageHeight="1169" math="0" shadow="0">
      <root>
        <mxCell id="0" />
        <mxCell id="1" parent="0" />
      </root>
    </mxGraphModel>
  </diagram>
</mxfile>
